<svg width="400" height="116" viewBox="0 0 400 116" fill="none" xmlns="http://www.w3.org/2000/svg">
<rect width="400" height="116" fill="white"/>
<rect x="11" y="20" width="378" height="74" fill="#00924C"/>
<path d="M48.4723 68.3536H43.7077V58.5469H34.78V68.3536H30V45.6319H34.78V54.5372H43.7077V45.6319H48.4723V68.3536Z" fill="white"/>
<path d="M61.578 54.0243C60.5809 54.0243 59.7997 54.3455 59.2343 54.9879C58.6689 55.6199 58.3451 56.5213 58.2629 57.6921H64.8623C64.8418 56.5213 64.5385 55.6199 63.9526 54.9879C63.3667 54.3455 62.5751 54.0243 61.578 54.0243ZM62.2411 68.6644C59.4656 68.6644 57.2966 67.8925 55.7341 66.3487C54.1716 64.8049 53.3904 62.6187 53.3904 59.7902C53.3904 56.8787 54.11 54.6304 55.5491 53.0452C56.9985 51.4496 58.9979 50.6518 61.5472 50.6518C63.9834 50.6518 65.88 51.3511 67.2369 52.7499C68.5938 54.1486 69.2722 56.0809 69.2722 58.5469V60.847H58.155C58.2063 62.1939 58.6021 63.2456 59.3422 64.0019C60.0824 64.7583 61.1206 65.1365 62.4569 65.1365C63.4952 65.1365 64.4768 65.0277 65.402 64.8101C66.3272 64.5925 67.2934 64.2454 68.3008 63.7688V67.4366C67.4785 67.8511 66.5996 68.1567 65.6641 68.3536C64.7287 68.5608 63.5877 68.6644 62.2411 68.6644Z" fill="white"/>
<path d="M78.4307 68.3536H73.7278V44.171H78.4307V68.3536Z" fill="white"/>
<path d="M93.4792 68.6644C91.4542 68.6644 89.866 67.9236 88.7147 66.442H88.468C88.6325 67.8925 88.7147 68.7317 88.7147 68.9597V76H84.0118V50.9781H87.8358L88.4988 53.2317H88.7147C89.8146 51.5117 91.4439 50.6518 93.6026 50.6518C95.6379 50.6518 97.2313 51.4444 98.3826 53.0296C99.5339 54.6149 100.11 56.8166 100.11 59.6348C100.11 61.4894 99.8371 63.1005 99.2923 64.4682C98.7578 65.8358 97.9919 66.8771 96.9948 67.592C95.9977 68.3069 94.8259 68.6644 93.4792 68.6644ZM92.0915 54.4439C90.9299 54.4439 90.0819 54.8065 89.5473 55.5318C89.0128 56.2467 88.7352 57.4331 88.7147 59.0908V59.6037C88.7147 61.4687 88.9871 62.8052 89.5319 63.6134C90.087 64.4216 90.9608 64.8256 92.1532 64.8256C94.2605 64.8256 95.3141 63.0746 95.3141 59.5726C95.3141 57.863 95.052 56.5835 94.5277 55.7339C94.0138 54.8739 93.2017 54.4439 92.0915 54.4439Z" fill="white"/>
<path d="M120.847 54.9879L125.55 45.6319H130.7L123.222 59.5104V68.3536H118.473V59.6659L110.994 45.6319H116.175L120.847 54.9879Z" fill="white"/>
<path d="M137.546 59.6348C137.546 61.3547 137.823 62.655 138.378 63.5357C138.944 64.4164 139.859 64.8567 141.123 64.8567C142.377 64.8567 143.276 64.4216 143.821 63.5512C144.376 62.6706 144.654 61.3651 144.654 59.6348C144.654 57.9148 144.376 56.6249 143.821 55.7649C143.266 54.905 142.356 54.475 141.092 54.475C139.838 54.475 138.933 54.905 138.378 55.7649C137.823 56.6145 137.546 57.9045 137.546 59.6348ZM149.465 59.6348C149.465 62.4633 148.725 64.6754 147.244 66.271C145.764 67.8666 143.703 68.6644 141.061 68.6644C139.406 68.6644 137.947 68.3018 136.682 67.5765C135.418 66.8409 134.446 65.7892 133.768 64.4216C133.089 63.0539 132.75 61.4583 132.75 59.6348C132.75 56.7959 133.485 54.589 134.955 53.0141C136.425 51.4392 138.491 50.6518 141.154 50.6518C142.809 50.6518 144.268 51.0144 145.533 51.7397C146.797 52.465 147.769 53.5062 148.447 54.8635C149.125 56.2208 149.465 57.8112 149.465 59.6348Z" fill="white"/>
<path d="M166.194 68.3536L165.562 66.1311H165.315C164.811 66.9393 164.097 67.5661 163.172 68.0117C162.247 68.4468 161.193 68.6644 160.011 68.6644C157.986 68.6644 156.459 68.1204 155.431 67.0325C154.403 65.9343 153.889 64.3594 153.889 62.3079V50.9781H158.592V61.1268C158.592 62.3804 158.813 63.3233 159.255 63.9553C159.697 64.577 160.401 64.8878 161.368 64.8878C162.684 64.8878 163.634 64.4475 164.22 63.5668C164.806 62.6757 165.099 61.2045 165.099 59.153V50.9781H169.802V68.3536H166.194Z" fill="white"/>
<path d="M184.989 50.6518C185.627 50.6518 186.156 50.6984 186.578 50.7916L186.223 55.2365C185.843 55.1329 185.38 55.0811 184.835 55.0811C183.334 55.0811 182.163 55.4696 181.32 56.2467C180.487 57.0238 180.071 58.1117 180.071 59.5104V68.3536H175.368V50.9781H178.93L179.624 53.9H179.855C180.389 52.926 181.109 52.1438 182.014 51.5532C182.928 50.9522 183.92 50.6518 184.989 50.6518Z" fill="white"/>
<path d="M202.366 63.1938C202.366 64.9759 201.75 66.3332 200.516 67.2657C199.293 68.1982 197.458 68.6644 195.011 68.6644C193.757 68.6644 192.688 68.5763 191.804 68.4002C190.92 68.2344 190.093 67.9858 189.322 67.6542V63.7377C190.195 64.1522 191.177 64.4993 192.267 64.779C193.367 65.0588 194.333 65.1986 195.166 65.1986C196.872 65.1986 197.725 64.7013 197.725 63.7067C197.725 63.3337 197.612 63.0332 197.386 62.8052C197.16 62.5669 196.769 62.3027 196.214 62.0126C195.659 61.7122 194.919 61.3651 193.994 60.9713C192.668 60.4119 191.691 59.8938 191.064 59.4172C190.447 58.9406 189.995 58.3966 189.707 57.7853C189.43 57.1637 189.291 56.4021 189.291 55.5007C189.291 53.9569 189.882 52.7654 191.064 51.9262C192.256 51.0766 193.942 50.6518 196.122 50.6518C198.198 50.6518 200.218 51.1077 202.181 52.0194L200.763 55.4386C199.899 55.0656 199.092 54.7599 198.342 54.5216C197.592 54.2833 196.826 54.1642 196.044 54.1642C194.657 54.1642 193.963 54.5423 193.963 55.2987C193.963 55.7235 194.184 56.0913 194.626 56.4021C195.078 56.713 196.06 57.174 197.571 57.7853C198.918 58.3345 199.904 58.8473 200.531 59.3239C201.158 59.8006 201.621 60.3497 201.919 60.9713C202.217 61.593 202.366 62.3338 202.366 63.1938Z" fill="white"/>
<path d="M213.807 54.0243C212.81 54.0243 212.028 54.3455 211.463 54.9879C210.898 55.6199 210.574 56.5213 210.492 57.6921H217.091C217.071 56.5213 216.767 55.6199 216.181 54.9879C215.595 54.3455 214.804 54.0243 213.807 54.0243ZM214.47 68.6644C211.694 68.6644 209.525 67.8925 207.963 66.3487C206.4 64.8049 205.619 62.6187 205.619 59.7902C205.619 56.8787 206.339 54.6304 207.778 53.0452C209.227 51.4496 211.227 50.6518 213.776 50.6518C216.212 50.6518 218.109 51.3511 219.466 52.7499C220.823 54.1486 221.501 56.0809 221.501 58.5469V60.847H210.384C210.435 62.1939 210.831 63.2456 211.571 64.0019C212.311 64.7583 213.349 65.1365 214.686 65.1365C215.724 65.1365 216.706 65.0277 217.631 64.8101C218.556 64.5925 219.522 64.2454 220.53 63.7688V67.4366C219.707 67.8511 218.828 68.1567 217.893 68.3536C216.957 68.5608 215.816 68.6644 214.47 68.6644Z" fill="white"/>
<path d="M230.659 68.3536H225.957V44.171H230.659V68.3536Z" fill="white"/>
<path d="M245.77 54.5372H241.699V68.3536H236.996V54.5372H234.406V52.2525L236.996 50.9781V49.7037C236.996 47.7248 237.479 46.2794 238.446 45.3677C239.412 44.4559 240.959 44 243.087 44C244.711 44 246.155 44.2435 247.42 44.7305L246.217 48.2118C245.271 47.9113 244.397 47.761 243.596 47.761C242.927 47.761 242.444 47.9631 242.146 48.3672C241.848 48.7609 241.699 49.2686 241.699 49.8902V50.9781H245.77V54.5372Z" fill="white"/>
<path d="M280.461 62.0437C280.461 64.0952 279.726 65.7115 278.256 66.8927C276.797 68.0738 274.761 68.6644 272.15 68.6644C269.745 68.6644 267.617 68.2085 265.767 67.2967V62.8208C267.288 63.5046 268.573 63.9864 269.621 64.2661C270.68 64.5459 271.647 64.6858 272.52 64.6858C273.569 64.6858 274.371 64.4837 274.926 64.0797C275.491 63.6756 275.774 63.0746 275.774 62.2768C275.774 61.8313 275.65 61.4376 275.404 61.0957C275.157 60.7434 274.792 60.4067 274.309 60.0855C273.836 59.7643 272.865 59.2514 271.395 58.5469C270.017 57.8941 268.984 57.2673 268.295 56.6663C267.607 56.0654 267.057 55.366 266.646 54.5682C266.234 53.7704 266.029 52.8379 266.029 51.7708C266.029 49.7607 266.702 48.1807 268.049 47.0306C269.406 45.8805 271.276 45.3055 273.661 45.3055C274.833 45.3055 275.948 45.4454 277.007 45.7251C278.076 46.0049 279.192 46.3986 280.353 46.9063L278.811 50.6518C277.609 50.1544 276.612 49.8073 275.82 49.6105C275.039 49.4136 274.268 49.3152 273.507 49.3152C272.603 49.3152 271.909 49.5276 271.426 49.9524C270.942 50.3772 270.701 50.9315 270.701 51.6153C270.701 52.0401 270.798 52.4131 270.994 52.7343C271.189 53.0452 271.497 53.3508 271.919 53.6513C272.351 53.9414 273.363 54.4698 274.957 55.2365C277.064 56.2519 278.508 57.2725 279.289 58.2982C280.071 59.3136 280.461 60.5621 280.461 62.0437Z" fill="white"/>
<path d="M297.021 68.3536L296.389 66.1311H296.142C295.638 66.9393 294.924 67.5661 293.999 68.0117C293.074 68.4468 292.02 68.6644 290.838 68.6644C288.813 68.6644 287.286 68.1204 286.258 67.0325C285.23 65.9343 284.716 64.3594 284.716 62.3079V50.9781H289.419V61.1268C289.419 62.3804 289.64 63.3233 290.082 63.9553C290.524 64.577 291.228 64.8878 292.195 64.8878C293.51 64.8878 294.461 64.4475 295.047 63.5668C295.633 62.6757 295.926 61.2045 295.926 59.153V50.9781H300.629V68.3536H297.021Z" fill="white"/>
<path d="M313.457 64.8878C314.28 64.8878 315.266 64.7065 316.418 64.3439V67.8718C315.246 68.4002 313.807 68.6644 312.1 68.6644C310.219 68.6644 308.847 68.1878 307.983 67.2346C307.13 66.271 306.704 64.8308 306.704 62.914V54.5372H304.452V52.5323L307.043 50.9471L308.4 47.2793H311.406V50.9781H316.233V54.5372H311.406V62.914C311.406 63.5875 311.591 64.0848 311.962 64.406C312.342 64.7272 312.84 64.8878 313.457 64.8878Z" fill="white"/>
<path d="M327.812 64.8878C328.634 64.8878 329.621 64.7065 330.772 64.3439V67.8718C329.601 68.4002 328.161 68.6644 326.455 68.6644C324.574 68.6644 323.202 68.1878 322.338 67.2346C321.485 66.271 321.058 64.8308 321.058 62.914V54.5372H318.807V52.5323L321.397 50.9471L322.754 47.2793H325.761V50.9781H330.587V54.5372H325.761V62.914C325.761 63.5875 325.946 64.0848 326.316 64.406C326.697 64.7272 327.195 64.8878 327.812 64.8878Z" fill="white"/>
<path d="M338.651 59.6348C338.651 61.3547 338.929 62.655 339.484 63.5357C340.049 64.4164 340.964 64.8567 342.228 64.8567C343.482 64.8567 344.382 64.4216 344.927 63.5512C345.482 62.6706 345.759 61.3651 345.759 59.6348C345.759 57.9148 345.482 56.6249 344.927 55.7649C344.372 54.905 343.462 54.475 342.197 54.475C340.943 54.475 340.039 54.905 339.484 55.7649C338.929 56.6145 338.651 57.9045 338.651 59.6348ZM350.57 59.6348C350.57 62.4633 349.83 64.6754 348.35 66.271C346.869 67.8666 344.808 68.6644 342.167 68.6644C340.512 68.6644 339.052 68.3018 337.788 67.5765C336.523 66.8409 335.552 65.7892 334.873 64.4216C334.195 63.0539 333.856 61.4583 333.856 59.6348C333.856 56.7959 334.591 54.589 336.061 53.0141C337.531 51.4392 339.597 50.6518 342.259 50.6518C343.914 50.6518 345.374 51.0144 346.638 51.7397C347.903 52.465 348.874 53.5062 349.552 54.8635C350.231 56.2208 350.57 57.8112 350.57 59.6348Z" fill="white"/>
<path d="M371 68.3536H366.297V58.205C366.297 56.9513 366.076 56.0136 365.634 55.3919C365.192 54.7599 364.488 54.4439 363.522 54.4439C362.206 54.4439 361.255 54.8894 360.669 55.7805C360.083 56.6612 359.79 58.1272 359.79 60.1787V68.3536H355.087V50.9781H358.68L359.312 53.2006H359.574C360.099 52.3613 360.818 51.7293 361.733 51.3045C362.658 50.8694 363.707 50.6518 364.879 50.6518C366.883 50.6518 368.404 51.2009 369.443 52.2992C370.481 53.3871 371 54.962 371 57.0238V68.3536Z" fill="white"/>
</svg>
